<svg xmlns="http://www.w3.org/2000/svg" viewBox="0 0 64 64"><rect width="46" height="58" x="3" y="3" fill="#acb7d0" rx="4" ry="4"/><path fill="#c5e4fa" d="M45,10V50a1,1,0,0,1-1,1H8a1,1,0,0,1-1-1V10A1,1,0,0,1,8,9H44A1,1,0,0,1,45,10Z"/><path fill="#e3f2ff" d="M45.07 32.93L26.93 51 10.86 51 45.07 16.87 45.07 32.93zM45.29 12.28L7.07 50.5 7.07 44.07 42.14 9 45.47 9.47 45.29 12.28zM37.86 9L6.95 39.91 6.95 34.55 32.5 9 37.86 9z"/><path fill="#fff8f8" d="M15.5 14L16.74 16.26 19 17.5 16.74 18.74 15.5 21 14.26 18.74 12 17.5 14.26 16.26 15.5 14zM21.42 33.16L22.27 34.73 23.84 35.58 22.27 36.44 21.42 38 20.56 36.44 19 35.58 20.56 34.73 21.42 33.16zM29.65 18.7L30.23 19.77 31.3 20.35 30.23 20.93 29.65 22 29.07 20.93 28 20.35 29.07 19.77 29.65 18.7z"/><rect width="26" height="48" x="35" y="15" fill="#acb7d0" rx="4" ry="4"/><path fill="#c5e4fa" d="M35 23H61V53H35z"/><path fill="#e3f2ff" d="M51 53L61.5 42.5 61.13 27.88 36 53 51 53zM35 50L61.13 23.88 56 23 35 44 35 50zM35 40L52 23 47 23 35 35 35 40z"/><path fill="#8d6c9f" d="M31.31,50H8V10H44v1a1,1,0,0,0,2,0V10a2,2,0,0,0-2-2H8a2,2,0,0,0-2,2V50a2,2,0,0,0,2,2H31.31a1,1,0,0,0,0-2Z"/><path fill="#8d6c9f" d="M57,14H50V7a5,5,0,0,0-5-5H7A5,5,0,0,0,2,7V57a5,5,0,0,0,5,5H35a5,5,0,0,0,4,2H57a5,5,0,0,0,5-5V19A5,5,0,0,0,57,14ZM36,24H60V52H36Zm21-8a3,3,0,0,1,3,3v3H36V19a3,3,0,0,1,3-3H57ZM7,60a3,3,0,0,1-3-3V7A3,3,0,0,1,7,4H45a3,3,0,0,1,3,3v7H39a5,5,0,0,0-5,5V59a4.72,4.72,0,0,0,.1,1Zm50,2H39a3,3,0,0,1-2.82-2A2.77,2.77,0,0,1,36,59V54H60v5A3,3,0,0,1,57,62Z"/><path fill="#8d6c9f" d="M10 45v2a1 1 0 0 0 2 0V45a1 1 0 0 0-2 0zM15 45v2a1 1 0 0 0 2 0V45a1 1 0 0 0-2 0zM20 45v2a1 1 0 0 0 2 0V45a1 1 0 0 0-2 0zM25 45v2a1 1 0 0 0 2 0V45a1 1 0 0 0-2 0zM30 45v2a1 1 0 0 0 2 0V45a1 1 0 0 0-2 0zM48 56A2 2 0 1 0 48 60 2 2 0 1 0 48 56zM26 54A2 2 0 1 0 26 58 2 2 0 1 0 26 54zM49 20h3a1 1 0 0 0 0-2H49a1 1 0 0 0 0 2zM45 18H44a1 1 0 0 0 0 2h1a1 1 0 0 0 0-2z"/><path fill="#fff8f8" d="M43.5 27.5L44.74 29.76 47 31 44.74 32.24 43.5 34.5 42.26 32.24 40 31 42.26 29.76 43.5 27.5zM55.42 35L56.27 36.56 57.84 37.42 56.27 38.27 55.42 39.84 54.56 38.27 53 37.42 54.56 36.56 55.42 35zM48.35 45L48.94 46.06 50 46.65 48.94 47.23 48.35 48.3 47.77 47.23 46.7 46.65 47.77 46.06 48.35 45z"/></svg>