<?xml version="1.0" encoding="iso-8859-1"?>
<!-- Generator: Adobe Illustrator 24.1.3, SVG Export Plug-In . SVG Version: 6.00 Build 0)  -->
<svg version="1.1" baseProfile="basic" id="Layer_1"
	 xmlns="http://www.w3.org/2000/svg" xmlns:xlink="http://www.w3.org/1999/xlink" x="0px" y="0px" viewBox="0 0 162 42"
	 xml:space="preserve">
<style type="text/css">
	.st0{fill:#0C1C40;}
	.st1{fill:#FFFFFF;}
	.st2{fill:#C8C5CC;}
	.st3{fill:#14CE2F;}
	.st4{fill:#14CE2F;stroke:#000000;stroke-width:0.25;stroke-miterlimit:10;}
	.st5{fill:none;stroke:#000000;stroke-width:0.25;stroke-miterlimit:10;}
	.st6{fill:#787681;}
	.st7{fill:#0C1C40;stroke:#0C1C40;stroke-miterlimit:10;}
</style>
<rect x="21.5" y="3" class="st0" width="25.2" height="3"/>
<rect x="21.5" y="6" class="st1" width="25.2" height="26.5"/>
<path class="st2" d="M46.7,39.8l-4-2.1c-0.1-0.1-0.2-0.1-0.4-0.1H25.5c-0.1,0-0.3,0-0.4,0.1l-3.5,2.1v-4.4h25.2V39.8z"/>
<path class="st3" d="M34.1,29.7c-0.3,0-0.6-0.2-0.6-0.6c0,0,0,0,0,0V16.2c0-0.3,0.3-0.6,0.6-0.6s0.6,0.2,0.6,0.6v12.9
	C34.7,29.4,34.4,29.7,34.1,29.7C34.1,29.7,34.1,29.7,34.1,29.7z"/>
<path class="st0" d="M30.6,9.9h7.1l0,0v5.7c0,0.4-0.3,0.7-0.7,0.7h-5.6c-0.4,0-0.7-0.3-0.7-0.7V9.9z"/>
<path class="st3" d="M46.7,10.4H21.5c-0.3,0-0.6-0.2-0.6-0.6c0-0.3,0.3-0.6,0.6-0.6h25.2c0.3,0,0.6,0.2,0.6,0.6
	C47.3,10.2,47,10.4,46.7,10.4z"/>
<path class="st3" d="M43.4,6v24.3c0,0.3-0.3,0.6-0.6,0.6c-0.3,0-0.6-0.2-0.6-0.6V6H43.4z M26.1,6v24.3c0,0.3-0.3,0.6-0.6,0.6
	c-0.3,0-0.6-0.2-0.6-0.6V6H26.1z"/>
<ellipse class="st1" cx="34.1" cy="13.1" rx="0.6" ry="0.6"/>
<polygon class="st4" points="37.7,20.8 37.7,24.5 34.1,26.4 30.5,24.5 30.5,20.8 34.1,19 36.8,20.4 "/>
<polygon class="st5" points="37.7,20.8 37.7,24.5 34.1,26.4 34.1,22.7 36.8,20.4 "/>
<polygon class="st4" points="37.7,20.8 34.1,22.7 30.5,20.8 34.1,19 "/>
<path class="st0" d="M46.7,32.4l-12.6,1.1l-12.6-1.1l2.3-3c0.1-0.1,0.2-0.2,0.4-0.2H44c0.2,0,0.3,0.1,0.4,0.2L46.7,32.4z M49.5,38.9
	l-2.8,0.9V3l2.8,0.9C49.8,4,50,4.3,50,4.6v33.7C50,38.5,49.8,38.8,49.5,38.9z M18.7,38.9l2.8,0.9V3l-2.8,0.9
	c-0.3,0.1-0.5,0.3-0.5,0.6v33.7C18.2,38.5,18.4,38.8,18.7,38.9z"/>
<rect x="21.5" y="32.4" class="st6" width="25.2" height="3"/>
<g>
	<path class="st3" d="M63.3,25h6.5v2.8h-11v-2.1l6.2-8.2h-6v-2.8h10.6v2.1L63.3,25z"/>
	<path class="st3" d="M72,11.2c0-0.5,0.2-1,0.5-1.3c0.4-0.3,0.8-0.5,1.4-0.5c0.6,0,1.1,0.2,1.4,0.5c0.4,0.3,0.5,0.8,0.5,1.3
		c0,0.5-0.2,1-0.5,1.3c-0.4,0.3-0.8,0.5-1.4,0.5c-0.6,0-1.1-0.2-1.4-0.5C72.2,12.2,72,11.8,72,11.2z M75.7,27.9h-3.5V14.6h3.5V27.9z
		"/>
	<path class="st3" d="M90.5,21.4c0,2-0.5,3.7-1.4,4.9c-0.9,1.2-2.2,1.8-3.7,1.8c-1.3,0-2.4-0.5-3.2-1.4v6.2h-3.5V14.6h3.3l0.1,1.3
		c0.9-1,2-1.5,3.3-1.5c1.6,0,2.9,0.6,3.8,1.8c0.9,1.2,1.4,2.9,1.4,5V21.4z M87,21.1c0-1.2-0.2-2.2-0.7-2.8c-0.4-0.7-1.1-1-1.9-1
		c-1.1,0-1.9,0.4-2.3,1.3v5.4c0.4,0.9,1.2,1.3,2.3,1.3C86.2,25.3,87,23.9,87,21.1z"/>
	<path class="st3" d="M96.2,17.4H98c0.9,0,1.6-0.2,2-0.7c0.4-0.4,0.6-1,0.6-1.8c0-0.7-0.2-1.3-0.6-1.7c-0.4-0.4-1-0.6-1.8-0.6
		c-0.7,0-1.2,0.2-1.7,0.6c-0.5,0.4-0.7,0.9-0.7,1.4h-3.5c0-0.9,0.3-1.8,0.8-2.5c0.5-0.7,1.2-1.3,2.1-1.7c0.9-0.4,1.9-0.6,3-0.6
		c1.9,0,3.4,0.4,4.4,1.3c1.1,0.9,1.6,2.1,1.6,3.7c0,0.8-0.2,1.6-0.7,2.2c-0.5,0.7-1.1,1.2-2,1.6c1,0.4,1.7,0.9,2.2,1.6
		c0.5,0.7,0.7,1.6,0.7,2.5c0,1.6-0.6,2.8-1.7,3.8c-1.2,1-2.7,1.4-4.6,1.4c-1.8,0-3.2-0.5-4.4-1.4s-1.7-2.2-1.7-3.7h3.5
		c0,0.7,0.3,1.2,0.8,1.6c0.5,0.4,1.1,0.6,1.8,0.6c0.8,0,1.5-0.2,2-0.7c0.5-0.4,0.7-1,0.7-1.8c0-1.8-1-2.7-2.9-2.7h-1.9V17.4z"/>
	<path class="st3" d="M106.5,21.1c0-2.1,0.5-3.7,1.4-4.9c0.9-1.2,2.2-1.8,3.8-1.8c1.3,0,2.3,0.5,3.2,1.4V9.1h3.5v18.8h-3.2l-0.2-1.4
		c-0.9,1.1-2,1.6-3.4,1.6c-1.6,0-2.8-0.6-3.7-1.8C107,25,106.5,23.3,106.5,21.1z M110,21.4c0,1.2,0.2,2.2,0.6,2.8s1.1,1,1.9,1
		c1.1,0,1.9-0.5,2.3-1.4v-5.2c-0.4-0.9-1.2-1.4-2.3-1.4C110.9,17.3,110,18.6,110,21.4z"/>
</g>
<line class="st7" x1="55" y1="3.1" x2="55" y2="39.9"/>
<g>
	<path class="st0" d="M63.9,24.9h6.5v2.8h-11v-2.1l6.2-8.2h-6v-2.8h10.6v2.1L63.9,24.9z"/>
	<path class="st0" d="M72.5,11.1c0-0.5,0.2-1,0.5-1.3c0.4-0.3,0.8-0.5,1.4-0.5c0.6,0,1.1,0.2,1.4,0.5c0.4,0.3,0.5,0.8,0.5,1.3
		c0,0.5-0.2,1-0.5,1.3c-0.4,0.3-0.8,0.5-1.4,0.5c-0.6,0-1.1-0.2-1.4-0.5C72.7,12.1,72.5,11.6,72.5,11.1z M76.3,27.7h-3.5V14.5h3.5
		V27.7z"/>
	<path class="st0" d="M91.1,21.2c0,2-0.5,3.7-1.4,4.9c-0.9,1.2-2.2,1.8-3.7,1.8c-1.3,0-2.4-0.5-3.2-1.4v6.2h-3.5V14.5h3.3l0.1,1.3
		c0.9-1,2-1.5,3.3-1.5c1.6,0,2.9,0.6,3.8,1.8c0.9,1.2,1.4,2.9,1.4,5V21.2z M87.5,21c0-1.2-0.2-2.2-0.7-2.8c-0.4-0.7-1.1-1-1.9-1
		c-1.1,0-1.9,0.4-2.3,1.3v5.4c0.4,0.9,1.2,1.3,2.3,1.3C86.7,25.1,87.5,23.7,87.5,21z"/>
	<path class="st0" d="M96.7,17.3h1.9c0.9,0,1.6-0.2,2-0.7c0.4-0.4,0.6-1,0.6-1.8c0-0.7-0.2-1.3-0.6-1.7c-0.4-0.4-1-0.6-1.8-0.6
		c-0.7,0-1.2,0.2-1.7,0.6c-0.5,0.4-0.7,0.9-0.7,1.4h-3.5c0-0.9,0.3-1.8,0.8-2.5c0.5-0.7,1.2-1.3,2.1-1.7c0.9-0.4,1.9-0.6,3-0.6
		c1.9,0,3.4,0.4,4.4,1.3c1.1,0.9,1.6,2.1,1.6,3.7c0,0.8-0.2,1.6-0.7,2.2c-0.5,0.7-1.1,1.2-2,1.6c1,0.4,1.7,0.9,2.2,1.6
		c0.5,0.7,0.7,1.6,0.7,2.5c0,1.6-0.6,2.8-1.7,3.8c-1.2,1-2.7,1.4-4.6,1.4c-1.8,0-3.2-0.5-4.4-1.4s-1.7-2.2-1.7-3.7h3.5
		c0,0.7,0.3,1.2,0.8,1.6c0.5,0.4,1.1,0.6,1.8,0.6c0.8,0,1.5-0.2,2-0.7c0.5-0.4,0.7-1,0.7-1.8c0-1.8-1-2.7-2.9-2.7h-1.9V17.3z"/>
	<path class="st0" d="M107,21c0-2.1,0.5-3.7,1.4-4.9c0.9-1.2,2.2-1.8,3.8-1.8c1.3,0,2.3,0.5,3.2,1.4V9h3.5v18.8h-3.2l-0.2-1.4
		c-0.9,1.1-2,1.6-3.4,1.6c-1.6,0-2.8-0.6-3.7-1.8C107.5,24.9,107,23.2,107,21z M110.6,21.3c0,1.2,0.2,2.2,0.6,2.8s1.1,1,1.9,1
		c1.1,0,1.9-0.5,2.3-1.4v-5.2c-0.4-0.9-1.2-1.4-2.3-1.4C111.4,17.1,110.6,18.5,110.6,21.3z"/>
</g>
<g>
</g>
<g>
</g>
<g>
</g>
<g>
</g>
<g>
</g>
<g>
</g>
<g>
</g>
<g>
</g>
<g>
</g>
<g>
</g>
<g>
</g>
<g>
</g>
<g>
</g>
<g>
</g>
<g>
</g>
</svg>
